<svg viewBox="0 0 224 280" fill="none" xmlns="http://www.w3.org/2000/svg">
  <path
    d="M102.208 7.4451L104.396 2.56746C104.961 1.30947 106.211 0.5 107.59 0.5H116.41C117.789 0.5 119.039 1.30947 119.604 2.56746L121.792 7.44511C122.918 9.95641 123.5 12.6274 123.5 15.3773V15.4977V15.6197V15.7432V15.8683V15.9948V16.1228V16.2524V16.3834V16.5159V16.6499V16.7853V16.9222V17.0606V17.2004V17.3417V17.4844V17.6285V17.774V17.921V18.0693V18.2191V18.3702V18.5228V18.6767V18.832V18.9886V19.1466V19.306V19.4667V19.6288V19.7922V19.9569V20.1229V20.2902V20.4589V20.6288V20.8001V20.9726V21.1464V21.3215V21.4978V21.6754V21.8542V22.0343V22.2157V22.3982V22.582V22.767V22.9532V23.1406V23.3292V23.519V23.71V23.9021V24.0955V24.2899V24.4856V24.6824V24.8803V25.0794V25.2796V25.4809V25.6833V25.8869V26.0915V26.2973V26.5041V26.712V26.921V27.131V27.3421V27.5543V27.7675V27.9817V28.197V28.4133V28.6307V28.849V29.0683V29.2887V29.51V29.7324V29.9557V30.1799V30.4052V30.6314V30.8585V31.0866V31.3157V31.5456V31.7765V32.0083V32.241V32.4747V32.7092V32.9446V33.1809V33.4181V33.6561V33.895V34.1348V34.3754V34.6169V34.8591V35.1023V35.3462V35.591V35.8365V36.0829V36.3301V36.578V36.8268V37.0763V37.3266V37.5776V37.8294V38.082V38.3353V38.5893V38.844V39.0995V39.3557V39.6126V39.8702V40.1284V40.3874V40.6471V40.9074V41.1684V41.43V41.6923V41.9553V42.2189V42.4831V42.7479V43.0134V43.2795V43.5462V43.8134V44.0813V44.3498V44.6188V44.8884V45.1586V45.4293V45.7006V45.9724V46.2448V46.5177V46.7911V47.065V47.3395V47.6144V47.8898V48.1658V48.4422V48.7191V48.9964V49.2743V49.5525V49.8313V50.1104V50.39V50.6701V50.9505V51.2314V51.5127V51.7944V52.0764V52.3589V52.6417V52.9249V53.2085V53.4925V53.7768V54.0614V54.3464V54.6317V54.9174V55.2033V55.4896V55.7762V56.0631V56.3503V56.6377V56.9255V57.2135V57.5018V57.7903V58.0791V58.3681V58.6574V58.9469V59.2366V59.5266V59.8167V60.1071V60.3977V60.6884V60.9793V61.2704V61.5617V61.8532V62.1448V62.4365V62.7284V63.0205V63.3126V63.6049V63.8973V64.1898V64.4824V64.7751V65.0679V65.3608V65.6537V65.9468V66.2399V66.533V66.8262V67.1194V67.4127V67.7059V67.9993V68.2926V68.5859V68.8792V69.1726V69.4659V69.7592V70.0524V70.3457V70.6389V70.932V71.2251V71.5181V71.8111V72.104V72.3968V72.6895V72.9821V73.2746V73.567V73.8593V74.1515V74.4436V74.7355V75.0272V75.3189V75.6103V75.9016V76.1928V76.4837V76.7745V77.0651V77.3555V77.6456V77.9356V78.2254V78.5149V78.8042V79.0933V79.3821V79.6707V79.959V80.247V80.5348V80.8223V81.1095V81.3964V81.683V81.9694V82.2554V82.541V82.8264V83.1114V83.3961V83.6805V83.9644V84.2481V84.5313V84.8142V85.0967V85.3789V85.6606V85.9419V86.2228V86.5033V86.7834V87.0631V87.3423V87.6211V87.8994V88.1773V88.4547V88.7316V89.0081V89.2841V89.5596V89.8346V90.1091V90.3831V90.6566V90.9296V91.202V91.4739V91.7452V92.016V92.2862V92.5559V92.825V93.0936V93.3615V93.6288V93.8956V94.1618V94.4273V94.6922V94.9565V95.2202V95.4832V95.7456V96.0073V96.2684V96.5288V96.7885V97.0476V97.3059V97.5636V97.8206V98.0769V98.3324V98.5873V98.8414V99.0947V99.3474V99.5993V99.8504V100.101V100.35V100.599V100.847V101.095V101.341V101.587V101.832V102.076V102.319V102.561V102.803V103.043V103.283V103.522V103.76V103.998V104.234V104.47V104.704V104.938V105.171V105.403V105.634V105.864V106.093V106.321V106.549V106.775V107V107.225V107.448V107.67V107.892V108.112V108.332V108.55V108.768V108.984V109.2V109.414V109.627V109.84V110.051V110.261V110.47V110.678V110.885V111.091V111.296V111.499V111.702V111.903V112.104V112.303V112.501V112.698V112.894V113.088V113.282V113.474V113.665V113.855V114.044V114.232V114.418V114.603V114.787V114.97V115.151V115.331V115.51V115.688V115.865V116.04V116.214V116.386V116.558V116.728V116.897V117.064V117.23V117.395V117.559V117.721V117.882V118.042V118.2V118.357V118.512V118.666V118.819V118.97V119.12V119.269V119.416V119.561V119.706V119.849V119.99V120.13V120.268V120.406V120.541V120.675V120.808V120.939V121.069V121.197V121.324V121.449V121.573V121.695V121.816V121.935V122.052V122.168V122.283V122.396V122.507V122.617V122.725V122.831V122.936V123.04V123.142V123.242V123.34V123.437V123.532V123.626V123.718V123.808V123.897V123.984V124.069V124.153V124.235V124.315V124.394V124.47V124.545V124.619V124.69V124.76V124.828V124.895V124.96V125.022V125.083V125.143V125.2V125.256V125.31V125.362V125.412V125.461V125.508V125.552V125.595V125.636V125.676V125.713V125.749V125.782V125.814V125.844V125.872V125.898V125.922V125.945V125.965V125.984V126C123.5 131.766 121.055 137.147 118.621 142.438C118.044 143.692 116.791 144.5 115.413 144.5H108.587C107.209 144.5 105.956 143.692 105.378 142.438C102.932 137.13 100.5 131.817 100.5 126V125.909V125.817V125.723V125.628V125.532V125.434V125.335V125.235V125.133V125.03V124.926V124.82V124.713V124.604V124.495V124.383V124.271V124.157V124.042V123.926V123.809V123.69V123.57V123.448V123.326V123.202V123.077V122.95V122.822V122.694V122.563V122.432V122.299V122.166V122.031V121.894V121.757V121.618V121.478V121.337V121.195V121.052V120.907V120.762V120.615V120.467V120.317V120.167V120.016V119.863V119.709V119.555V119.399V119.241V119.083V118.924V118.764V118.602V118.44V118.276V118.111V117.945V117.779V117.611V117.442V117.272V117.101V116.928V116.755V116.581V116.406V116.23V116.052V115.874V115.695V115.515V115.334V115.151V114.968V114.784V114.599V114.413V114.226V114.038V113.849V113.659V113.468V113.276V113.083V112.89V112.695V112.5V112.303V112.106V111.908V111.709V111.509V111.308V111.106V110.904V110.7V110.496V110.291V110.085V109.878V109.67V109.462V109.253V109.042V108.831V108.62V108.407V108.194V107.979V107.764V107.549V107.332V107.115V106.897V106.678V106.458V106.238V106.017V105.795V105.572V105.349V105.125V104.9V104.674V104.448V104.221V103.994V103.765V103.536V103.307V103.076V102.845V102.613V102.381V102.148V101.914V101.68V101.445V101.209V100.973V100.736V100.499V100.26V100.022V99.7824V99.5424V99.3019V99.0607V98.819V98.5767V98.3338V98.0904V97.8464V97.6018V97.3567V97.111V96.8648V96.6181V96.3708V96.123V95.8747V95.6258V95.3765V95.1266V94.8763V94.6254V94.374V94.1222V93.8699V93.6171V93.3639V93.1102V92.856V92.6013V92.3463V92.0908V91.8348V91.5784V91.3216V91.0644V90.8067V90.5487V90.2902V90.0313V89.7721V89.5124V89.2524V88.992V88.7312V88.47V88.2085V87.9466V87.6844V87.4218V87.1589V86.8956V86.6321V86.3681V86.1039V85.8394V85.5745V85.3093V85.0439V84.7781V84.5121V84.2457V83.9791V83.7122V83.4451V83.1777V82.91V82.6421V82.3739V82.1055V81.8368V81.568V81.2988V81.0295V80.76V80.4902V80.2203V79.9501V79.6798V79.4092V79.1385V78.8676V78.5965V78.3253V78.0539V77.7823V77.5106V77.2387V76.9667V76.6946V76.4223V76.1499V75.8774V75.6048V75.332V75.0592V74.7863V74.5132V74.2401V73.9669V73.6936V73.4202V73.1468V72.8733V72.5998V72.3262V72.0526V71.7789V71.5051V71.2314V70.9576V70.6838V70.41V70.1362V69.8624V69.5886V69.3148V69.0409V68.7672V68.4934V68.2197V67.946V67.6723V67.3987V67.1251V66.8516V66.5781V66.3047V66.0314V65.7582V65.485V65.2119V64.9389V64.666V64.3932V64.1205V63.848V63.5755V63.3032V63.031V62.7589V62.487V62.2152V61.9435V61.6721V61.4007V61.1296V60.8586V60.5878V60.3171V60.0467V59.7764V59.5064V59.2365V58.9668V58.6974V58.4282V58.1592V57.8904V57.6219V57.3536V57.0855V56.8177V56.5502V56.2829V56.0159V55.7491V55.4826V55.2164V54.9505V54.6849V54.4196V54.1546V53.8899V53.6255V53.3614V53.0976V52.8342V52.5711V52.3084V52.046V51.7839V51.5222V51.2609V50.9999V50.7393V50.479V50.2192V49.9597V49.7007V49.442V49.1837V48.9259V48.6684V48.4114V48.1548V47.8986V47.6428V47.3875V47.1327V46.8783V46.6243V46.3708V46.1178V45.8653V45.6132V45.3616V45.1105V44.8599V44.6097V44.3601V44.111V43.8624V43.6143V43.3668V43.1198V42.8733V42.6273V42.3819V42.1371V41.8928V41.6491V41.4059V41.1633V40.9213V40.6798V40.439V40.1987V39.9591V39.72V39.4816V39.2437V39.0065V38.7699V38.534V38.2987V38.064V37.8299V37.5965V37.3638V37.1317V36.9003V36.6696V36.4396V36.2102V35.9815V35.7535V35.5262V35.2996V35.0738V34.8486V34.6242V34.4004V34.1774V33.9552V33.7337V33.5129V33.2929V33.0736V32.8551V32.6374V32.4204V32.2043V31.9889V31.7743V31.5604V31.3474V31.1352V30.9238V30.7132V30.5034V30.2945V30.0864V29.8791V29.6727V29.4671V29.2623V29.0585V28.8554V28.6533V28.452V28.2516V28.0521V27.8535V27.6557V27.4589V27.263V27.0679V26.8738V26.6806V26.4884V26.297V26.1066V25.9172V25.7287V25.5411V25.3545V25.1689V24.9842V24.8005V24.6178V24.4361V24.2553V24.0756V23.8968V23.7191V23.5424V23.3666V23.1919V23.0183V22.8456V22.674V22.5035V22.3339V22.1655V21.9981V21.8317V21.6664V21.5022V21.3391V21.1771V21.0161V20.8563V20.6975V20.5399V20.3833V20.2279V20.0736V19.9204V19.7684V19.6175V19.4677V19.3191V19.1716V19.0253V18.8801V18.7362V18.5934V18.4517V18.3113V18.172V18.034V17.8971V17.7615V17.627V17.4938V17.3618V17.231V17.1015V16.9732V16.8461V16.7203V16.5957V16.4724V16.3504V16.2296V16.1101V15.9919V15.875V15.7593V15.645V15.5319V15.4202C100.5 12.6692 101.082 9.95539 102.208 7.4451Z"
    fill="url(#paint0_linear_576_37267)" stroke="#C2298A" />
  <path d="M102.5 136C102.5 136 106.5 139.5 112 139.5C117.5 139.5 121.5 136 121.5 136" stroke="#C2298A" />
  <ellipse cx="112" cy="45" rx="3" ry="2" stroke="#EA9ACC" />
  <ellipse cx="112" cy="79" rx="3" ry="2" stroke="#EA9ACC" />
  <ellipse cx="112" cy="21" rx="3" ry="2" stroke="#EA9ACC" />
  <ellipse cx="112" cy="59" rx="3" ry="2" stroke="#EA9ACC" />
  <ellipse cx="112" cy="93" rx="3" ry="2" stroke="#EA9ACC" />
  <ellipse cx="112" cy="112" rx="3" ry="2" stroke="#EA9ACC" />
  <path opacity="0.25"
    d="M118 11.5811C118 11.3049 118.224 11.0811 118.5 11.0811V11.0811C118.776 11.0811 119 11.3049 119 11.5811V118.397C119 118.673 118.776 118.897 118.5 118.897V118.897C118.224 118.897 118 118.673 118 118.397V11.5811Z"
    fill="#EA9ACC" />
  <path opacity="0.25"
    d="M105 11.5811C105 11.3049 105.224 11.0811 105.5 11.0811V11.0811C105.776 11.0811 106 11.3049 106 11.5811V118.397C106 118.673 105.776 118.897 105.5 118.897V118.897C105.224 118.897 105 118.673 105 118.397V11.5811Z"
    fill="#EA9ACC" />
  <path
    d="M119.022 131.122L119.789 124.722C119.882 123.949 119.06 123.281 118.297 123.437C117.027 123.695 114.991 123.962 112 123.962C109.009 123.962 106.973 123.695 105.703 123.437C104.94 123.281 104.118 123.949 104.211 124.722L104.978 131.122C104.993 131.243 105.017 131.362 105.072 131.47C105.375 132.066 106.776 134.059 112 134.059C117.224 134.059 118.625 132.066 118.928 131.47C118.983 131.362 119.007 131.243 119.022 131.122Z"
    fill="#DFB9D1" />
  <path opacity="0.5"
    d="M124 174.944C124 167.753 118.804 145.489 117.703 140.852C117.613 140.472 117.125 140.332 116.802 140.553C115.936 141.145 114.289 142 112 142C109.682 142 108.022 141.123 107.165 140.53C106.851 140.313 106.377 140.439 106.276 140.807C105.133 144.975 100 164.277 100 174.944C100 180.377 102 184 112 184C122 184 124 179.703 124 174.944Z"
    fill="url(#paint1_linear_576_37267)" />
  <path
    d="M112 35.0513C109.75 35.0513 107.922 35.0751 106.442 35.1826C104.957 35.2905 103.861 35.4805 103.057 35.7942C102.269 36.1014 101.779 36.5195 101.472 37.0915C101.154 37.6824 101 38.4913 101 39.6324H100C100 38.4221 100.159 37.4203 100.591 36.6176C101.033 35.7961 101.731 35.2378 102.693 34.8626C103.639 34.4938 104.855 34.2953 106.37 34.1852C107.89 34.0748 109.75 34.0513 112 34.0513C114.25 34.0513 116.11 34.0748 117.63 34.1852C119.145 34.2953 120.361 34.4938 121.307 34.8626C122.269 35.2378 122.967 35.7961 123.409 36.6176C123.841 37.4203 124 38.4221 124 39.6324H123C123 38.4913 122.846 37.6824 122.528 37.0915C122.221 36.5195 121.731 36.1014 120.943 35.7942C120.139 35.4805 119.043 35.2905 117.558 35.1826C116.078 35.0751 114.25 35.0513 112 35.0513Z"
    fill="#C2298A" />
  <path
    d="M106.442 69.7339C107.922 69.6264 109.75 69.6026 112 69.6026C114.25 69.6026 116.078 69.6264 117.558 69.7339C119.043 69.8418 120.139 70.0319 120.943 70.3456C121.731 70.6528 122.221 71.0709 122.528 71.6429C122.846 72.2338 123 73.0427 123 74.1837H124C124 72.9735 123.841 71.9716 123.409 71.169C122.967 70.3474 122.269 69.7892 121.307 69.4139C120.361 69.0451 119.145 68.8466 117.63 68.7366C116.11 68.6261 114.25 68.6026 112 68.6026C109.75 68.6026 107.89 68.6261 106.37 68.7366C104.855 68.8466 103.639 69.0451 102.693 69.4139C101.731 69.7892 101.033 70.3474 100.591 71.169C100.159 71.9716 100 72.9735 100 74.1837H101C101 73.0427 101.154 72.2338 101.472 71.6429C101.779 71.0709 102.269 70.6528 103.057 70.3456C103.861 70.0319 104.957 69.8418 106.442 69.7339Z"
    fill="#C2298A" />
  <path
    d="M106.442 104.285C107.922 104.178 109.75 104.154 112 104.154C114.25 104.154 116.078 104.178 117.558 104.285C119.043 104.393 120.139 104.583 120.943 104.897C121.731 105.204 122.221 105.622 122.528 106.194C122.846 106.785 123 107.594 123 108.735H124C124 107.525 123.841 106.523 123.409 105.72C122.967 104.899 122.269 104.341 121.307 103.965C120.361 103.596 119.145 103.398 117.63 103.288C116.11 103.177 114.25 103.154 112 103.154C109.75 103.154 107.89 103.177 106.37 103.288C104.855 103.398 103.639 103.596 102.693 103.965C101.731 104.341 101.033 104.899 100.591 105.72C100.159 106.523 100 107.525 100 108.735H101C101 107.594 101.154 106.785 101.472 106.194C101.779 105.622 102.269 105.204 103.057 104.897C103.861 104.583 104.957 104.393 106.442 104.285Z"
    fill="#C2298A" />
  <g style="mix-blend-mode:color-dodge" opacity="0.125" filter="url(#filter0_f_576_37267)">
    <ellipse cx="112" cy="145" rx="48" ry="80" fill="#C2298A" />
  </g>
  <defs>
    <filter id="filter0_f_576_37267" x="0" y="1" width="224" height="288" filterUnits="userSpaceOnUse"
      color-interpolation-filters="sRGB">
      <feFlood flood-opacity="0" result="BackgroundImageFix" />
      <feBlend mode="normal" in="SourceGraphic" in2="BackgroundImageFix" result="shape" />
      <feGaussianBlur stdDeviation="32" result="effect1_foregroundBlur_576_37267" />
    </filter>
    <linearGradient id="paint0_linear_576_37267" x1="112" y1="0" x2="112" y2="145" gradientUnits="userSpaceOnUse">
      <stop stop-color="#08070C" />
      <stop offset="1" stop-color="#C2298A" stop-opacity="0.7" />
    </linearGradient>
    <linearGradient id="paint1_linear_576_37267" x1="110.5" y1="184" x2="110.5" y2="138.718"
      gradientUnits="userSpaceOnUse">
      <stop offset="0.114583" stop-color="white" stop-opacity="0" />
      <stop offset="0.53125" stop-color="#999999" stop-opacity="0.447917" />
      <stop offset="1" stop-color="white" stop-opacity="0.4" />
    </linearGradient>
  </defs>
</svg>
